ply
format ascii 1.0
comment VTK generated PLY File
element vertex 18
property float x
property float y
property float z
element face 32
property list uchar int vertex_indices
end_header
0 0 0.5 
0 0 -0.5 
0.433013 0 0.25 
0.433013 0 -0.25 
0.306186 0.306186 0.25 
0.306186 0.306186 -0.25 
2.65144e-17 0.433013 0.25 
2.65144e-17 0.433013 -0.25 
-0.306186 0.306186 0.25 
-0.306186 0.306186 -0.25 
-0.433013 5.30288e-17 0.25 
-0.433013 5.30288e-17 -0.25 
-0.306186 -0.306186 0.25 
-0.306186 -0.306186 -0.25 
-7.95431e-17 -0.433013 0.25 
-7.95431e-17 -0.433013 -0.25 
0.306186 -0.306186 0.25 
0.306186 -0.306186 -0.25 
3 2 4 0 
3 4 6 0 
3 6 8 0 
3 8 10 0 
3 10 12 0 
3 12 14 0 
3 14 16 0 
3 16 2 0 
3 3 1 5 
3 5 1 7 
3 7 1 9 
3 9 1 11 
3 11 1 13 
3 13 1 15 
3 15 1 17 
3 17 1 3 
3 2 3 5 
3 2 5 4 
3 4 5 7 
3 4 7 6 
3 6 7 9 
3 6 9 8 
3 8 9 11 
3 8 11 10 
3 10 11 13 
3 10 13 12 
3 12 13 15 
3 12 15 14 
3 14 15 17 
3 14 17 16 
3 16 17 3 
3 16 3 2 
